<svg width="973.1249999999999" height="1024" xmlns="http://www.w3.org/2000/svg">

 <g>
  <title>background</title>
  <rect fill="none" id="canvas_background" height="402" width="582" y="-1" x="-1"/>
 </g>
 <g>
  <title>Layer 1</title>
  <path fill="#ffffff" id="svg_1" d="m960,832l-249.125,-249.125c35.563,-58.063 57.125,-125.719 57.125,-198.875c0,-212.031 -172,-384 -384,-384c-212.031,0 -384,171.969 -384,384c0,212 171.969,384 384,384c73.156,0 140.812,-21.562 198.875,-57l249.125,249c17.5,17.5 46.5,17.375 64,0l64,-64c17.5,-17.5 17.5,-46.5 0,-64zm-576,-192c-141.375,0 -256,-114.625 -256,-256s114.625,-256 256,-256s256,114.625 256,256s-114.625,256 -256,256z"/>
 </g>
</svg>